<svg width="22" height="21" viewBox="0 0 22 21" fill="none" xmlns="http://www.w3.org/2000/svg">
<rect width="22" height="21" fill="#D2D2D2"/>
<g clip-path="url(#clip0_0_1)">
<rect width="375" height="2252" transform="translate(-310 -1139)" fill="#F7F7F7"/>
<g clip-path="url(#clip1_0_1)">
<g filter="url(#filter0_d_0_1)">
<rect x="-293" y="-197" width="340" height="251" rx="15" fill="white"/>
</g>
<mask id="path-3-inside-1_0_1" fill="white">
<path d="M19.865 1.43593C17.5103 -0.753131 14.0083 -0.359381 11.847 2.07343L11.0005 3.02499L10.154 2.07343C7.99701 -0.359381 4.49076 -0.753131 2.13607 1.43593C-0.562363 3.94843 -0.704161 8.45781 1.71068 11.1812L10.0251 20.5469C10.5622 21.1516 11.4345 21.1516 11.9716 20.5469L20.2861 11.1812C22.7052 8.45781 22.5634 3.94843 19.865 1.43593Z"/>
</mask>
<path d="M19.865 1.43593C17.5103 -0.753131 14.0083 -0.359381 11.847 2.07343L11.0005 3.02499L10.154 2.07343C7.99701 -0.359381 4.49076 -0.753131 2.13607 1.43593C-0.562363 3.94843 -0.704161 8.45781 1.71068 11.1812L10.0251 20.5469C10.5622 21.1516 11.4345 21.1516 11.9716 20.5469L20.2861 11.1812C22.7052 8.45781 22.5634 3.94843 19.865 1.43593Z" stroke="#101010" stroke-width="2" mask="url(#path-3-inside-1_0_1)"/>
</g>
</g>
<defs>
<filter id="filter0_d_0_1" x="-308" y="-208" width="370" height="281" filterUnits="userSpaceOnUse" color-interpolation-filters="sRGB">
<feFlood flood-opacity="0" result="BackgroundImageFix"/>
<feColorMatrix in="SourceAlpha" type="matrix" values="0 0 0 0 0 0 0 0 0 0 0 0 0 0 0 0 0 0 127 0" result="hardAlpha"/>
<feOffset dy="4"/>
<feGaussianBlur stdDeviation="7.5"/>
<feColorMatrix type="matrix" values="0 0 0 0 0 0 0 0 0 0 0 0 0 0 0 0 0 0 0.1 0"/>
<feBlend mode="normal" in2="BackgroundImageFix" result="effect1_dropShadow_0_1"/>
<feBlend mode="normal" in="SourceGraphic" in2="effect1_dropShadow_0_1" result="shape"/>
</filter>
<clipPath id="clip0_0_1">
<rect width="375" height="2252" fill="white" transform="translate(-310 -1139)"/>
</clipPath>
<clipPath id="clip1_0_1">
<rect x="-293" y="-197" width="340" height="251" rx="15" fill="white"/>
</clipPath>
</defs>
</svg>
